<svg xmlns="http://www.w3.org/2000/svg" width="256" height="256"><path fill-opacity=".016" d="M0 128.004v128.004l128.25-.254 128.25-.254.254-127.75L257.008 0H0v128.004m.485.496c0 70.4.119 99.053.265 63.672.146-35.38.146-92.98 0-128C.604 29.153.485 58.1.485 128.5" fill="#1976D2" fill-rule="evenodd"/><path fill-opacity=".422" d="M121.942 6.467c-3.325 7.037-11.614 18.713-19.352 27.259-6.879 7.597-17.545 15.865-36.953 28.645C38.411 80.298 28.559 89.817 20.998 105.5c-5.162 10.705-6.391 17.746-5.721 32.771.643 14.439 2.282 21.236 7.892 32.729 4.787 9.807 14.897 20.707 23.406 25.234 19.948 10.613 45.444 6.479 63.805-10.346l6.425-5.887-2.023 6.743c-8.707 29.023-27.138 47.626-58.258 58.803-9.542 3.427-11.763 5.265-9.91 8.203 1.036 1.643 5.99 1.75 80.886 1.75s79.85-.107 80.886-1.75c1.791-2.839-.255-4.71-9.513-8.699-25.635-11.047-47.195-33.971-56.315-59.878l-1.524-4.328 4.912 4.416c5.98 5.377 16.682 11.134 24.646 13.258 7.989 2.13 21.645 2.132 29.027.003 13.864-3.997 25.645-14.134 32.365-27.849 6.243-12.738 7.5-18.811 7.488-36.173-.009-13.136-.299-15.808-2.329-21.5-6.618-18.552-17.088-29.221-51.021-51.996C162.538 45.175 142.736 24.981 134.147 8c-3.127-6.182-4.259-7.555-6.441-7.814-2.378-.281-2.967.36-5.764 6.281" fill="#1976D2" fill-rule="evenodd"/><path fill-opacity=".379" d="M125.239 1.25c-.553.688-2.385 4.005-4.072 7.371-9.045 18.057-25.242 34.042-53.447 52.748C56.599 68.745 45.025 76.956 42 79.617c-22.583 19.862-30.445 41.365-25.498 69.735 4.707 26.994 20.455 45.89 42.591 51.108 12.215 2.879 24.404 1.336 36.167-4.579 6.998-3.519 18.221-12.043 19.84-15.068 2.117-3.956 2.078-.758-.078 6.341-8.757 28.831-28.164 48.293-58.704 58.869-9.424 3.264-11.074 4.696-9.279 8.049 1.005 1.879 3.049 1.928 80.374 1.928 68.141 0 79.512-.205 80.547-1.452 1.825-2.199.354-5.185-3.243-6.585-6.618-2.577-19.387-9.322-24.217-12.793-7.413-5.326-19.015-16.781-24.534-24.22-4.452-6.002-12.899-22.196-14.484-27.768-.557-1.958.269-1.569 5.328 2.508 24.704 19.907 56.143 18.993 76.041-2.21 10.121-10.785 15.795-26.141 16.805-45.48.672-12.88-1.131-22.482-6.101-32.5-6.99-14.089-18.279-24.74-45.055-42.506-7.7-5.11-17.784-12.483-22.41-16.386-13.586-11.464-28.56-29.593-33.237-40.242-2.772-6.312-5.29-8.004-7.614-5.116" fill="#1976D2" fill-rule="evenodd"/><path fill-opacity=".978" d="M126.208.851c-.71.45-2.559 3.481-4.107 6.734-5.764 12.112-21.517 30.561-34.601 40.522-3.3 2.512-13.875 9.749-23.5 16.082-9.65 6.35-20.969 14.759-25.233 18.746-18.037 16.866-25.25 35.516-22.811 58.981 2.008 19.313 7.223 31.997 17.744 43.149 20.592 21.828 52.956 21.842 76.513.032l7.099-6.573-.744 3.988c-1.11 5.947-6.034 18.132-10.299 25.488-2.191 3.778-7.747 10.478-13.269 16-10.944 10.944-19.177 16.059-35.083 21.795-10.627 3.833-12.548 5.535-9.877 8.753 1.034 1.247 12.213 1.452 79.001 1.452 42.787 0 78.507-.273 79.377-.607.87-.334 1.582-1.68 1.582-2.992 0-2.036-1.399-3.04-9.543-6.845-22.936-10.718-39.149-25.727-50.377-46.637-4.075-7.587-8.495-18.919-7.38-18.919.326 0 2.671 1.944 5.211 4.32 5.954 5.569 12.389 9.304 21.126 12.259 30.968 10.478 60.847-6.339 69.434-39.079 2.152-8.206 3.681-23.776 2.939-29.927-3.185-26.391-13.962-39.584-54.41-66.601-23.114-15.44-42.368-35.303-52-53.644-3.632-6.917-4.616-7.855-6.792-6.477" fill="#1976D2" fill-rule="evenodd"/></svg>